<svg width="16" height="16" viewBox="0 0 16 16" fill="none" xmlns="http://www.w3.org/2000/svg">
<path fill-rule="evenodd" clip-rule="evenodd" d="M8 3L5.17 5.925C4.39 6.733 4 7.81 4 8.845C4 9.881 4.39 10.974 5.17 11.781C5.95 12.589 6.975 12.998 8 12.998C9.025 12.998 10.05 12.589 10.83 11.781C11.61 10.974 12 9.881 12 8.846C12 7.81 11.61 6.733 10.83 5.926L8 3ZM8 4.438L10.11 6.62C10.7 7.23 11 8.052 11 8.846C11 9.643 10.696 10.48 10.11 11.086C9.521 11.696 8.757 11.998 8 11.998C7.243 11.998 6.479 11.697 5.89 11.087C5.303 10.48 5 9.643 5 8.846C5 8.052 5.301 7.229 5.89 6.62L8 4.438Z" fill="black" fill-opacity="0.9"/>
</svg>
