<svg width="16" height="16" viewBox="0 0 16 16" fill="none" xmlns="http://www.w3.org/2000/svg">
<g clip-path="url(#clip0_6_695)">
<path fill-rule="evenodd" clip-rule="evenodd" d="M1.018 8.5C1.237 11.604 3.478 14.149 6.433 14.824C5.623 13.499 5.068 11.178 5.006 8.5H1.018ZM8 16C3.582 16 0 12.418 0 8C0 3.582 3.582 0 8 0C12.418 0 16 3.582 16 8C16 12.418 12.418 16 8 16ZM6.434 1.176C3.479 1.851 1.237 4.396 1.018 7.5H5.006C5.068 4.822 5.624 2.5 6.434 1.176ZM9.567 1.176C12.521 1.851 14.763 4.396 14.982 7.5H10.994C10.932 4.822 10.376 2.5 9.567 1.176ZM14.982 8.5H10.994C10.932 11.178 10.376 13.5 9.567 14.824C12.521 14.149 14.763 11.604 14.982 8.5ZM9.185 13.306C9.637 12.1 9.948 10.415 9.994 8.5H6.006C6.052 10.415 6.363 12.1 6.815 13.306C7.062 13.964 7.332 14.427 7.581 14.708C7.831 14.99 7.975 15 8 15C8.026 15 8.17 14.99 8.42 14.708C8.668 14.428 8.938 13.964 9.185 13.306ZM6.815 2.694C6.363 3.899 6.053 5.585 6.006 7.5H9.994C9.948 5.585 9.637 3.9 9.185 2.694C8.938 2.036 8.668 1.573 8.42 1.292C8.17 1.01 8.024 1 8 1C7.975 1 7.83 1.01 7.58 1.292C7.332 1.572 7.062 2.036 6.815 2.694Z" fill="black" fill-opacity="0.9"/>
</g>
<defs>
<clipPath id="clip0_6_695">
<rect width="16" height="16" fill="white"/>
</clipPath>
</defs>
</svg>
