<svg width="16" height="16" viewBox="0 0 16 16" fill="none" xmlns="http://www.w3.org/2000/svg">
<g clip-path="url(#clip0_4_636)">
<path fill-rule="evenodd" clip-rule="evenodd" d="M7.5 0.5H8.5V3.5H7.5V0.5ZM2.343 3.05L3.05 2.343V2.344L5.172 4.464L4.465 5.172L2.343 3.05ZM12.95 2.343L13.657 3.05L11.536 5.172L10.829 4.464L12.95 2.343ZM0.5 8.5V7.5H3.5V8.5H0.5ZM12.5 8.5V7.5H15.5V8.5H12.5ZM4.465 10.828L5.172 11.536L3.05 13.657L2.343 12.95L4.465 10.828ZM10.828 11.536L11.535 10.828L13.657 12.95L12.95 13.656L10.828 11.536ZM7.5 12.5H8.5V15.5H7.5V12.5ZM7.998 10.498C9.378 10.498 10.498 9.37799 10.498 7.99799C10.498 6.61799 9.378 5.49799 7.998 5.49799C6.618 5.49799 5.498 6.61799 5.498 7.99799C5.498 9.37799 6.618 10.498 7.998 10.498ZM7.998 9.49799C8.826 9.49799 9.498 8.82599 9.498 7.99799C9.498 7.16899 8.826 6.49799 7.998 6.49799C7.169 6.49799 6.498 7.16899 6.498 7.99799C6.498 8.82599 7.169 9.49799 7.998 9.49799Z" fill="black" fill-opacity="0.9"/>
</g>
<defs>
<clipPath id="clip0_4_636">
<rect width="16" height="16" fill="white"/>
</clipPath>
</defs>
</svg>
