<svg width="16" height="16" viewBox="0 0 16 16" fill="none" xmlns="http://www.w3.org/2000/svg">
<path fill-rule="evenodd" clip-rule="evenodd" d="M4 8.05V1H5V8.05C6.141 8.282 7 9.29 7 10.5C7 11.71 6.141 12.718 5 12.95V15H4V12.95C2.859 12.718 2 11.71 2 10.5C2 9.29 2.859 8.282 4 8.05ZM6 10.5C6 11.328 5.328 12 4.5 12C3.672 12 3 11.328 3 10.5C3 9.672 3.672 9 4.5 9C5.328 9 6 9.672 6 10.5ZM11 15H12V7.95C13.141 7.718 14 6.71 14 5.5C14 4.29 13.141 3.282 12 3.05V1H11V3.05C9.859 3.282 9 4.29 9 5.5C9 6.71 9.859 7.718 11 7.95V15ZM13 5.5C13 4.672 12.328 4 11.5 4C10.672 4 10 4.672 10 5.5C10 6.328 10.672 7 11.5 7C12.328 7 13 6.328 13 5.5Z" fill="black" fill-opacity="0.9"/>
</svg>
