<svg width="16" height="16" viewBox="0 0 16 16" fill="none" xmlns="http://www.w3.org/2000/svg">
<path fill-rule="evenodd" clip-rule="evenodd" d="M8 13C5.23858 13 3 10.7614 3 8C3 5.23858 5.23858 3 8 3C10.7614 3 13 5.23858 13 8C13 10.7614 10.7614 13 8 13ZM2 8C2 4.68629 4.68629 2 8 2C11.3137 2 14 4.68629 14 8C14 11.3137 11.3137 14 8 14C4.68629 14 2 11.3137 2 8ZM7.5 9.27273V9.32671H8.3125V9.27273C8.31629 9.05493 8.34091 8.87217 8.38636 8.72444C8.43182 8.57671 8.50379 8.44887 8.60227 8.34092C8.70265 8.23296 8.83333 8.1288 8.99432 8.02842C9.16477 7.92614 9.31061 7.80872 9.43182 7.67614C9.55492 7.54357 9.64962 7.393 9.71591 7.22444C9.7822 7.05398 9.81534 6.8627 9.81534 6.65058C9.81534 6.34186 9.74242 6.07198 9.59659 5.84092C9.45265 5.60796 9.25 5.42709 8.98864 5.2983C8.72727 5.16762 8.42235 5.10228 8.07386 5.10228C7.75568 5.10228 7.46496 5.16289 7.2017 5.2841C6.94034 5.40531 6.73011 5.58429 6.57102 5.82103C6.41193 6.05588 6.32576 6.34376 6.3125 6.68467H7.17614C7.18939 6.48391 7.23958 6.32008 7.3267 6.19319C7.41383 6.0644 7.52367 5.9697 7.65625 5.9091C7.78883 5.84849 7.92803 5.81819 8.07386 5.81819C8.23485 5.81819 8.38068 5.85228 8.51136 5.92046C8.64394 5.98675 8.75 6.08145 8.82955 6.20455C8.90909 6.32766 8.94886 6.47349 8.94886 6.64205C8.94886 6.7822 8.92235 6.91004 8.86932 7.02558C8.81629 7.14111 8.74432 7.24338 8.65341 7.33239C8.5625 7.42141 8.46023 7.5019 8.34659 7.57387C8.17045 7.67993 8.01989 7.79736 7.89489 7.92614C7.76989 8.05493 7.6733 8.22349 7.60511 8.43183C7.53883 8.64016 7.50379 8.92046 7.5 9.27273ZM7.52841 10.8892C7.64015 10.9991 7.77367 11.054 7.92898 11.054C8.03314 11.054 8.12784 11.0284 8.21307 10.9773C8.2983 10.9261 8.36648 10.858 8.41761 10.7727C8.47064 10.6856 8.49716 10.59 8.49716 10.4858C8.49716 10.3305 8.44034 10.1979 8.3267 10.0881C8.21496 9.97633 8.08239 9.92046 7.92898 9.92046C7.77367 9.92046 7.64015 9.97633 7.52841 10.0881C7.41667 10.1979 7.3608 10.3305 7.3608 10.4858C7.3608 10.643 7.41667 10.7775 7.52841 10.8892Z" fill="black" fill-opacity="0.9"/>
</svg>
