<svg width="16" height="16" viewBox="0 0 16 16" fill="none" xmlns="http://www.w3.org/2000/svg">
<path d="M13.508 7.801C14.064 7.274 14.544 6.667 14.93 6H13.745C12.48 7.814 10.378 9 8 9C5.622 9 3.52 7.814 2.254 6H1.07C1.456 6.667 1.936 7.274 2.491 7.801L0.896 9.396L1.604 10.103L3.26 8.446C3.97 8.969 4.771 9.378 5.634 9.645L5.017 11.866L5.981 12.134L6.607 9.879C7.06 9.96 7.525 10 8 10C8.475 10 8.94 9.959 9.392 9.88L10.018 12.134L10.982 11.866L10.365 9.645C11.228 9.378 12.028 8.969 12.739 8.445L14.396 10.103L15.104 9.396L13.508 7.801Z" fill="black" fill-opacity="0.9"/>
</svg>
