<svg width="16" height="16" viewBox="0 0 16 16" fill="none" xmlns="http://www.w3.org/2000/svg">
<path fill-rule="evenodd" clip-rule="evenodd" d="M7.40988 14H8.59388C8.85741 13.6842 9.17365 13.4109 9.53035 13.1918C10.9224 12.3411 13.2998 12.2947 14.5995 13.2993H16V4.22039C16 4.22039 15.2499 2 11.84 2C10.0753 2 9.10871 2.59408 8.58729 3.16842C8.22118 3.57007 8.07435 3.96086 8.02259 4.13158H7.97647C7.92565 3.96086 7.77882 3.56908 7.41271 3.16842C6.89129 2.59408 5.92471 2 4.16 2C0.750118 2 0 4.22039 0 4.22039V13.2895H1.40047C2.70118 12.2839 5.08047 12.3322 6.47153 13.1859C6.82918 13.4059 7.14635 13.6812 7.40988 14ZM8.47059 4.41678V12.7625C8.65412 12.6066 8.84988 12.4664 9.056 12.3401C9.92847 11.8062 11.0466 11.5546 12.1064 11.5635C13.0532 11.5714 14.0649 11.7875 14.8847 12.3125H15.0588V4.44441L15.0306 4.39507C14.9496 4.25888 14.8085 4.06053 14.5845 3.85724C14.1506 3.46546 13.3327 2.98684 11.84 2.98684C10.3473 2.98684 9.63765 3.46447 9.30447 3.81086C9.12659 3.99441 9.02588 4.17303 8.97224 4.29441C8.944 4.35461 8.92894 4.4 8.92235 4.42368L8.91765 4.44046L8.91859 4.43454L8.92047 4.42664V4.42171L8.92141 4.41974V4.41776L8.91671 4.41678H8.47059ZM7.52941 4.41678H7.08329L7.07765 4.41776V4.41974L7.07859 4.42171L7.07953 4.42664L7.08141 4.43454L7.08235 4.44046C7.08235 4.44145 7.08235 4.43553 7.07765 4.42368C7.07106 4.4 7.05506 4.35461 7.02776 4.29441C6.97412 4.17303 6.87341 3.99441 6.69553 3.81086C6.36235 3.46447 5.65271 2.98684 4.16 2.98684C2.66824 2.98684 1.84941 3.46546 1.41553 3.85724C1.19153 4.06053 1.05035 4.25888 0.969412 4.39507L0.941176 4.44441V12.3026H1.11529C1.936 11.7776 2.94871 11.5605 3.89553 11.5536C4.95718 11.5457 6.07529 11.7993 6.94776 12.3352C7.152 12.4605 7.34682 12.6016 7.52941 12.7556V4.41678Z" fill="black" fill-opacity="0.9"/>
</svg>
