<svg width="16" height="16" viewBox="0 0 16 16" fill="none" xmlns="http://www.w3.org/2000/svg">
<path fill-rule="evenodd" clip-rule="evenodd" d="M5.965 12.066L7.953 10.078L8.66 10.785L6.672 12.773C5.72 13.725 4.176 13.725 3.225 12.773C2.273 11.822 2.273 10.278 3.225 9.326L5.213 7.338L5.92 8.045L3.932 10.033C3.37 10.595 3.37 11.505 3.932 12.066C4.493 12.628 5.403 12.628 5.965 12.066ZM10.781 8.664L10.074 7.957L12.064 5.967C12.624 5.407 12.624 4.496 12.064 3.935C11.502 3.373 10.592 3.373 10.03 3.935L8.041 5.924L7.334 5.217L9.324 3.227C10.275 2.276 11.819 2.276 12.77 3.227C13.722 4.179 13.722 5.723 12.77 6.675L10.781 8.664ZM9.876 6.697L9.302 6.122L6.12 9.304L6.694 9.879L9.876 6.697Z" fill="black" fill-opacity="0.9"/>
</svg>
