<svg width="16" height="16" viewBox="0 0 16 16" fill="none" xmlns="http://www.w3.org/2000/svg">
<path d="M3.5 5C3.5 5.828 4.172 6.5 5 6.5C5.828 6.5 6.5 5.828 6.5 5C6.5 4.172 5.828 3.5 5 3.5C4.172 3.5 3.5 4.172 3.5 5ZM9.5 5C9.5 5.828 10.172 6.5 11 6.5C11.828 6.5 12.5 5.828 12.5 5C12.5 4.172 11.828 3.5 11 3.5C10.172 3.5 9.5 4.172 9.5 5ZM11 12.5C10.172 12.5 9.5 11.828 9.5 11C9.5 10.172 10.172 9.5 11 9.5C11.828 9.5 12.5 10.172 12.5 11C12.5 11.828 11.828 12.5 11 12.5ZM3.5 11C3.5 11.828 4.172 12.5 5 12.5C5.828 12.5 6.5 11.828 6.5 11C6.5 10.172 5.828 9.5 5 9.5C4.172 9.5 3.5 10.172 3.5 11Z" fill="black" fill-opacity="0.9"/>
</svg>
