<svg width="16" height="16" viewBox="0 0 16 16" fill="none" xmlns="http://www.w3.org/2000/svg">
<path fill-rule="evenodd" clip-rule="evenodd" d="M9.04 9.81C8.301 10.386 7.372 10.727 6.364 10.727C3.953 10.727 2 8.775 2 6.364C2 3.953 3.953 2 6.364 2C8.774 2 10.727 3.953 10.727 6.364C10.727 7.372 10.385 8.301 9.811 9.04L13.295 12.523L12.523 13.294L9.04 9.81ZM9.636 6.364C9.636 8.171 8.171 9.636 6.364 9.636C4.556 9.636 3.091 8.171 3.091 6.364C3.091 4.556 4.556 3.091 6.364 3.091C8.171 3.091 9.636 4.556 9.636 6.364Z" fill="black" fill-opacity="0.9"/>
</svg>
