<svg width="16" height="16" viewBox="0 0 16 16" fill="none" xmlns="http://www.w3.org/2000/svg">
<path fill-rule="evenodd" clip-rule="evenodd" d="M14.635 8C13.378 5.621 10.878 4 8 4C5.122 4 2.623 5.621 1.365 8C2.623 10.379 5.122 12 8 12C10.878 12 13.378 10.379 14.635 8ZM2.522 8C3.678 9.806 5.7 11 8 11C10.3 11 12.322 9.806 13.479 8C12.322 6.194 10.3 5 8 5C5.7 5 3.678 6.194 2.522 8ZM10 8C10 9.105 9.105 10 8 10C6.896 10 6 9.105 6 8C6 6.895 6.896 6 8 6C9.105 6 10 6.895 10 8Z" fill="black" fill-opacity="0.9"/>
</svg>
