<svg width="16" height="16" viewBox="0 0 16 16" fill="none" xmlns="http://www.w3.org/2000/svg">
<path fill-rule="evenodd" clip-rule="evenodd" d="M4.555 4.60499L4.563 4.595C5.074 3.991 5.738 3.52899 6.489 3.26099C7.398 2.93799 8.387 2.91399 9.309 3.19499C10.233 3.47499 11.041 4.04499 11.615 4.82099C12.09 5.46099 12.385 6.21399 12.472 7.001L12.474 7.01399L12.479 7.04599L12.48 7.053L10.277 5.58399C10.047 5.43099 9.737 5.49299 9.584 5.72299C9.431 5.95299 9.493 6.263 9.723 6.416L12.532 8.28899C12.856 8.50499 13.291 8.43699 13.534 8.13299L15.391 5.81299C15.563 5.59699 15.528 5.28299 15.312 5.10999C15.097 4.93699 14.782 4.97199 14.61 5.18799L13.435 6.65599C13.299 5.77999 12.952 4.94499 12.419 4.22599C11.717 3.27799 10.729 2.58099 9.601 2.23799C8.473 1.89499 7.264 1.92299 6.153 2.31899C5.2 2.65899 4.363 3.25399 3.729 4.03499C3.555 4.24899 3.618 4.562 3.847 4.71499C4.051 4.85199 4.317 4.81799 4.499 4.65999L4.533 4.62899L4.555 4.60499ZM0.610003 9.18799C0.437003 9.40299 0.472003 9.71799 0.688003 9.88999C0.903003 10.063 1.218 10.028 1.39 9.812L2.565 8.34399C2.701 9.21999 3.048 10.055 3.581 10.774C4.283 11.722 5.271 12.419 6.399 12.762C7.528 13.105 8.736 13.077 9.847 12.681C10.8 12.341 11.637 11.746 12.271 10.965C12.445 10.75 12.382 10.438 12.153 10.285C11.949 10.148 11.683 10.183 11.501 10.34L11.467 10.371L11.445 10.395L11.437 10.405C10.926 11.009 10.262 11.471 9.511 11.739C8.602 12.062 7.613 12.086 6.691 11.805C5.767 11.525 4.959 10.955 4.385 10.179C3.91 9.539 3.615 8.78599 3.528 7.99899L3.526 7.98599L3.521 7.954L3.52 7.94699L5.723 9.416C5.953 9.56899 6.263 9.507 6.416 9.277C6.569 9.047 6.507 8.73699 6.277 8.58399L3.468 6.711C3.144 6.495 2.709 6.56299 2.466 6.86699L0.610003 9.18799Z" fill="black" fill-opacity="0.9"/>
</svg>
