<svg width="16" height="16" viewBox="0 0 16 16" fill="none" xmlns="http://www.w3.org/2000/svg">
<path fill-rule="evenodd" clip-rule="evenodd" d="M6 3.38099L2 5.69099V10.309L6 12.619L10 10.309V5.69099L6 3.37999V3.38099ZM11 5.11299L6 2.22699L1 5.11299V10.887L6 13.774L11 10.887V5.11299ZM14 10.309L9 13.196L10 13.774L15 10.887V5.11299L10 2.22699L9 2.80399L14 5.69099V10.309ZM7 7.99999C7 8.55199 6.552 8.99999 6 8.99999C5.448 8.99999 5 8.55199 5 7.99999C5 7.44799 5.448 6.99999 6 6.99999C6.552 6.99999 7 7.44799 7 7.99999Z" fill="black" fill-opacity="0.9"/>
</svg>
