<svg width="16" height="16" viewBox="0 0 16 16" fill="none" xmlns="http://www.w3.org/2000/svg">
<g clip-path="url(#clip0_4_672)">
<path fill-rule="evenodd" clip-rule="evenodd" d="M15 8C15 11.866 11.866 15 8 15C4.134 15 1 11.866 1 8C1 4.134 4.134 1 8 1C11.866 1 15 4.134 15 8ZM8 16C12.418 16 16 12.418 16 8C16 3.582 12.418 0 8 0C3.582 0 0 3.582 0 8C0 12.418 3.582 16 8 16ZM7.30601 9.571H8.68801V9.57L8.88401 3.763H7.11101L7.30601 9.571ZM8.67101 10.728C8.50201 10.563 8.27801 10.481 7.99801 10.481C7.72201 10.481 7.49601 10.565 7.32401 10.734C7.15501 10.899 7.07001 11.108 7.07001 11.362C7.07001 11.615 7.15401 11.824 7.32401 11.989C7.49701 12.154 7.72101 12.237 7.99701 12.237C8.27701 12.237 8.50201 12.154 8.67001 11.989C8.84301 11.824 8.93001 11.615 8.93001 11.362C8.93001 11.105 8.84301 10.893 8.67101 10.728Z" fill="black" fill-opacity="0.9"/>
</g>
<defs>
<clipPath id="clip0_4_672">
<rect width="16" height="16" fill="white"/>
</clipPath>
</defs>
</svg>
